HIERARCHY
ROOT Hips
{
	OFFSET 0.00000 0.00000 0.00000
	CHANNELS 6 Xposition Yposition Zposition Zrotation Yrotation Xrotation 
	JOINT LHipJoint
	{
		OFFSET 0 0 0
		CHANNELS 3 Zrotation Yrotation Xrotation
		JOINT LeftHip
		{
			OFFSET 1.37590 -1.78394 0.89329
			CHANNELS 3 Zrotation Yrotation Xrotation
			JOINT LeftKnee
			{
				OFFSET 2.47928 -6.81178 0.00000
				CHANNELS 3 Zrotation Yrotation Xrotation
				JOINT LeftAnkle
				{
					OFFSET 2.63345 -7.23535 0.00000
					CHANNELS 3 Zrotation Yrotation Xrotation
					JOINT LeftToe
					{
						OFFSET 0.23938 -0.65768 2.27012
						CHANNELS 3 Zrotation Yrotation Xrotation
						End Site
						{
							OFFSET 0.00000 -0.00000 1.18363
						}
					}
				}
			}
		}
	}
	JOINT RHipJoint
	{
		OFFSET 0 0 0
		CHANNELS 3 Zrotation Yrotation Xrotation
		JOINT RightHip
		{
			OFFSET -1.33617 -1.78394 0.89329
			CHANNELS 3 Zrotation Yrotation Xrotation
			JOINT RightKnee
			{
				OFFSET -2.56922 -7.05888 0.00000
				CHANNELS 3 Zrotation Yrotation Xrotation
				JOINT RightAnkle
				{
					OFFSET -2.56568 -7.04915 0.00000
					CHANNELS 3 Zrotation Yrotation Xrotation
					JOINT RightToe
					{
						OFFSET -0.27533 -0.75646 2.18105
						CHANNELS 3 Zrotation Yrotation Xrotation
						End Site
						{
							OFFSET -0.00000 -0.00000 1.15233
						}
					}
				}
			}
		}
	}
	JOINT lowerback
	{
		OFFSET 0 0 0
		CHANNELS 3 Zrotation Yrotation Xrotation
		JOINT Chest
		{
			OFFSET 0.06190 2.15152 -0.00935
			CHANNELS 3 Zrotation Yrotation Xrotation
			JOINT Chest2
			{
				OFFSET 0.06334 2.15332 0.00872
				CHANNELS 3 Zrotation Yrotation Xrotation
				JOINT lowerneck
				{
					OFFSET 0 0 0
					CHANNELS 3 Zrotation Yrotation Xrotation
					JOINT Neck
					{
						OFFSET -0.04202 1.66908 0.23524
						CHANNELS 3 Zrotation Yrotation Xrotation
						JOINT Head
						{
							OFFSET 0.07510 1.69357 -0.24440
							CHANNELS 3 Zrotation Yrotation Xrotation
							End Site
							{
								OFFSET 0.02556 1.71719 -0.11000
							}
						}
					}
				}
				JOINT LeftCollar
				{
					OFFSET 0 0 0
					CHANNELS 3 Zrotation Yrotation Xrotation
					JOINT LeftShoulder
					{
						OFFSET 3.67168 1.26306 -0.41342
CHANNELS 3 Zrotation Xrotation Yrotation
						JOINT LeftElbow
						{
OFFSET 0 -4.685100 -0.000000
CHANNELS 3 Zrotation Xrotation Yrotation
							JOINT LeftWrist
							{
OFFSET 0 -3.396260 -0.000000
CHANNELS 3 Zrotation Xrotation Yrotation
								JOINT lhand
								{
									OFFSET 0 0 0
CHANNELS 3 Zrotation Xrotation Yrotation
									JOINT LFingers
									{
OFFSET 0 -0.486080 -0.000000
CHANNELS 3 Zrotation Xrotation Yrotation
										End Site
										{
OFFSET 0 -0.391890 -0.000000
										}
									}
								}
								JOINT LThumb
								{
OFFSET 0 0.000000 0.000000
CHANNELS 3 Zrotation Xrotation Yrotation
									End Site
									{
OFFSET 0 -0.397870 0.397870
									}
								}
							}
						}
					}
				}
				JOINT RightCollar
				{
					OFFSET 0 0 0
					CHANNELS 3 Zrotation Yrotation Xrotation
					JOINT RightShoulder
					{
						OFFSET -3.04136 1.42992 -0.76390
CHANNELS 3 Zrotation Xrotation Yrotation
						JOINT RightElbow
						{
OFFSET 0 -5.555760 -0.000000
CHANNELS 3 Zrotation Xrotation Yrotation
							JOINT RightWrist
							{
OFFSET 0 -3.327740 -0.000000
CHANNELS 3 Zrotation Xrotation Yrotation
								JOINT rhand
								{
									OFFSET 0 0 0
CHANNELS 3 Zrotation Xrotation Yrotation
									JOINT RFingers
									{
OFFSET 0 -0.507630 -0.000000
CHANNELS 3 Zrotation Xrotation Yrotation
										End Site
										{
OFFSET 0 -0.409260 -0.000000
										}
									}
								}
								JOINT RThumb
								{
OFFSET 0 0.000000 0.000000
CHANNELS 3 Zrotation Xrotation Yrotation
									End Site
									{
OFFSET 0 -0.415510 0.415510
									}
								}
							}
						}
					}
				}
			}
		}
	}
}
MOTION
Frames: 9
Frame Time: .0083333
30.7868 17.9208 6.9067 -60.1009 -83.3395 68.4679 0.0000 0.0000 0.0000 -7.2680 -7.7353 -21.8707 9.9860 17.4020 59.4416 -0.0004 -1.1800 1.6330 0.6346 -5.0969 -14.1851 0.0000 0.0000 0.0000 31.4847 5.8597 -11.7963 -0.6522 -5.1658 14.3819 -0.0896 -4.2362 -8.7554 -1.5986 -7.9744 22.6364 5.3288 1.4275 1.0033 4.1492 2.1020 -3.6996 1.2199 0.8798 -4.3602 -8.6501 -7.4502 -18.6698 6.6382 -9.2408 16.2482 2.4118 -4.2247 8.8728 0.0000 -0.0000 0.0000 13.0507 11.3777 0.3069 16.1336 -25.7015 3.7037 5.4876 24.1419 -13.733 0.0 0.0 0.0 -7.1250 0.0 0.0 -19.7256 42.872 -1.0813 0.0000 -0.0000 0.0000 -8.5848 -7.9328 13.4158 -15.5784 -24.9457 -3.4662 -13.3857 10.4392 27.1294 0.0 0.0 0.0 7.1250 0.0 -0.0 18.4150 56.7912 -5.4489
30.6522 17.9277 6.8907 -62.3534 -83.3341 70.5635 0.0000 0.0000 0.0000 -7.0291 -7.8445 -22.7970 10.0012 17.4105 59.4922 -0.0026 -0.9236 0.5385 0.6139 -5.0144 -13.9498 0.0000 0.0000 0.0000 31.7791 5.6893 -10.9240 -0.6212 -5.0439 14.0338 -0.1011 -4.0236 -8.8239 -1.5849 -7.9418 22.5375 5.5174 1.5222 1.1167 4.1264 2.2434 -3.7048 1.0826 0.9414 -4.4208 -8.7143 -7.5812 -18.8434 6.7188 -9.4185 16.4126 2.4171 -4.2985 8.9817 -0.0000 0.0000 0.0000 13.5164 11.4447 1.5084 16.6904 -26.4478 3.9485 5.5732 22.5802 -13.8152 0.0 0.0 0.0 -7.1250 0.0 0.0 -19.6794 42.9585 -1.0347 -0.0000 0.0000 0.0000 -8.7746 -8.5078 14.2076 -16.5934 -26.3186 -3.9054 -12.8518 9.0691 27.3293 0.0 0.0 0.0 7.1250 0.0 -0.0 19.0843 56.87 -5.6938
30.5212 17.9323 6.8756 -64.7886 -83.4164 72.8828 0.0000 0.0000 0.0000 -6.9429 -8.0921 -23.7895 10.0282 17.4257 59.5824 0.0004 -0.6953 -0.5808 0.6195 -5.0372 -14.0148 0.0000 0.0000 0.0000 31.9646 5.5276 -10.1222 -0.5908 -4.9210 13.6833 -0.1217 -3.7352 -9.0384 -1.6301 -8.0490 22.8630 5.6728 1.6666 0.4342 4.0361 2.3590 -3.3879 0.9173 1.0120 -3.6893 -8.8047 -7.6396 -18.2918 7.0087 -9.5439 15.8250 2.5291 -4.3501 8.7151 0.0000 0.0000 0.0000 14.0592 11.1073 2.8985 17.2545 -27.1921 4.203 5.3334 20.7648 -14.2091 0.0 0.0 0.0 -7.1250 0.0 0.0 -20.0205 43.3045 -0.8753 0.0000 0.0000 0.0000 -8.89 -9.4204 14.6942 -17.6847 -27.7516 -4.4014 -12.0701 7.4967 27.2863 0.0 0.0 0.0 7.1250 0.0 -0.0 19.8499 56.6681 -5.8365
30.3890 17.9357 6.8602 -67.2136 -83.4132 75.1674 0.0000 0.0000 0.0000 -6.7826 -8.2128 -24.6039 9.9019 17.3543 59.1601 0.0082 -0.6177 -1.6111 0.5678 -4.8260 -13.4129 0.0000 0.0000 0.0000 32.2272 5.5387 -9.2021 -0.5698 -4.8344 13.4369 -0.1398 -3.5525 -9.2851 -1.6997 -8.2104 23.3549 5.8421 1.7698 0.7146 3.9803 2.5291 -3.4467 0.7516 1.0853 -3.8967 -8.7783 -7.6842 -18.4903 7.0851 -9.6140 15.8690 2.5347 -4.3683 8.7736 0.0000 -0.0000 0.0000 14.4776 11.2194 4.2821 18.0403 -28.2087 4.5683 4.419 17.5419 -14.6798 0.0 0.0 0.0 -7.1250 0.0 0.0 -20.9773 43.648 -0.7343 0.0000 -0.0000 0.0000 -8.9728 -9.7843 15.1844 -19.0692 -29.5046 -5.0649 -11.4163 5.3204 27.1773 0.0 0.0 0.0 7.1250 0.0 -0.0 20.4396 56.4323 -5.9017
30.2576 17.9389 6.8453 -69.4977 -83.4089 77.3300 0.0000 0.0000 0.0000 -6.6286 -8.3804 -25.4711 9.8087 17.3009 58.8470 0.0202 -0.4162 -2.5668 0.5389 -4.7033 -13.0643 0.0000 0.0000 0.0000 32.4693 5.4589 -8.3577 -0.5448 -4.7288 13.1365 -0.1553 -3.3564 -9.4596 -1.7237 -8.2652 23.5225 6.0196 1.8757 0.7116 3.9169 2.6712 -3.4094 0.5832 1.1511 -3.8418 -8.7955 -7.7378 -18.4502 7.2196 -9.7068 15.7485 2.5708 -4.4011 8.7418 0.0000 -0.0000 0.0000 14.9135 11.2519 5.5522 18.8686 -29.2551 4.9665 3.603 14.4597 -15.0738 0.0 0.0 0.0 -7.1250 0.0 0.0 -21.8274 43.9257 -0.6094 0.0000 -0.0000 0.0000 -9.0721 -10.2897 15.6106 -20.4485 -31.1789 -5.7617 -10.7893 3.4237 27.2627 0.0 0.0 0.0 7.1250 0.0 -0.0 21.1243 56.3848 -6.0872
30.1270 17.9410 6.8308 -71.6667 -83.3849 79.3897 0.0000 0.0000 0.0000 -6.4767 -8.5536 -26.3104 9.6739 17.2224 58.3929 0.0343 -0.2001 -3.4323 0.5181 -4.6132 -12.8085 0.0000 0.0000 0.0000 32.7149 5.3817 -7.5345 -0.5203 -4.6228 12.8358 -0.1695 -3.1816 -9.6218 -1.7351 -8.2911 23.6017 6.2028 1.9768 0.7395 3.8516 2.8116 -3.4025 0.4088 1.2144 -3.8348 -8.8057 -7.7775 -18.3526 7.3518 -9.7853 15.6049 2.6088 -4.4291 8.6906 0.0000 0.0000 0.0000 15.3158 11.3524 6.7823 19.8429 -30.4526 5.4515 2.5355 10.906 -15.5511 0.0 0.0 0.0 -7.1250 0.0 0.0 -22.9322 44.2477 -0.4506 0.0000 0.0000 0.0000 -9.157 -10.7142 15.97 -21.9679 -32.9407 -6.5684 -10.23 1.485 27.3982 0.0 0.0 0.0 7.1250 0.0 -0.0 21.7730 56.397 -6.2933
29.9970 17.9421 6.8167 -73.6987 -83.3381 81.3247 0.0000 0.0000 0.0000 -6.3220 -8.7258 -27.1177 9.4969 17.1170 57.7931 0.0497 0.0244 -4.2182 0.5108 -4.5814 -12.7183 0.0000 0.0000 0.0000 32.9674 5.2939 -6.7399 -0.4967 -4.5182 12.5394 -0.1823 -3.0207 -9.7638 -1.7303 -8.2801 23.5681 6.3929 2.0681 0.8179 3.7907 2.9458 -3.4245 0.2332 1.2724 -3.8858 -8.8059 -7.8084 -18.2651 7.4664 -9.8507 15.4776 2.6409 -4.4519 8.6443 -0.0000 -0.0000 0.0000 15.6685 11.5204 7.965 20.9878 -31.8142 6.0435 1.2812 7.0062 -16.1364 0.0 0.0 0.0 -7.1250 0.0 0.0 -24.2494 44.6401 -0.2294 -0.0000 -0.0000 0.0000 -9.2381 -11.0743 16.2878 -23.6348 -34.7757 -7.4973 -9.7503 -0.4282 27.5816 0.0 0.0 0.0 7.1250 0.0 -0.0 22.3743 56.4689 -6.5191
29.8677 17.9421 6.8031 -75.5964 -83.2754 83.1425 0.0000 0.0000 0.0000 -6.1711 -8.9046 -27.8969 9.2813 16.9854 57.0581 0.0655 0.2519 -4.9309 0.5170 -4.6086 -12.7956 0.0000 0.0000 0.0000 33.2184 5.1803 -5.9877 -0.4737 -4.4141 12.2447 -0.1940 -2.8611 -9.8830 -1.7093 -8.2323 23.4220 6.5845 2.1527 0.9102 3.7327 3.0738 -3.4656 0.0592 1.3259 -3.9640 -8.8035 -7.8320 -18.1579 7.5724 -9.9066 15.3507 2.6716 -4.4717 8.5935 -0.0000 -0.0000 0.0000 15.9767 11.7444 9.0894 22.3127 -33.3286 6.7569 0.0345 2.9552 -16.848 0.0 0.0 0.0 -7.1250 0.0 0.0 -25.6252 45.1383 0.0938 -0.0000 -0.0000 0.0000 -9.3197 -11.3879 16.5615 -25.4470 -36.6574 -8.5554 -9.3534 -2.2269 27.7877 0.0 0.0 0.0 7.1250 0.0 -0.0 22.9099 56.5773 -6.7481
29.7392 17.9412 6.7899 -77.4029 -83.2032 84.8884 0.0000 0.0000 0.0000 -6.0262 -9.0804 -28.6487 9.0286 16.8261 56.1890 0.0820 0.4558 -5.5936 0.5366 -4.6937 -13.0371 0.0000 0.0000 0.0000 33.4612 5.0511 -5.2832 -0.4532 -4.3187 11.9750 -0.2060 -2.6901 -10.0015 -1.6805 -8.1662 23.2201 6.7710 2.2350 0.9568 3.6784 3.1927 -3.4778 -0.1058 1.3771 -3.9858 -8.7862 -7.8496 -18.0879 7.6691 -9.9503 15.2023 2.6977 -4.4850 8.5395 0.0000 0.0000 0.0000 16.2404 11.9435 10.1524 23.8257 -34.9794 7.6064 -1.0117 -1.0452 -17.7558 0.0 0.0 0.0 -7.1250 0.0 0.0 -26.9341 45.8247 0.5914 0.0000 0.0000 0.0000 -9.4098 -11.7384 16.7771 -27.4043 -38.562 -9.7501 -9.033 -3.8588 27.9738 0.0 0.0 0.0 7.1250 0.0 -0.0 23.3575 56.6819 -6.9504
